M48
;DRILL file {KiCad 4.0.7} date 04/30/18 14:56:58
;FORMAT={-:-/ absolute / inch / decimal}
FMAT,2
INCH,TZ
T1C0.015
T2C0.020
T3C0.030
T4C0.031
T5C0.035
T6C0.046
T7C0.059
%
G90
G05
M72
T1
X6.655Y-4.39
T2
X6.53Y-4.5
X6.53Y-4.55
X6.53Y-4.6
T3
X6.03Y-4.6
X6.03Y-4.9
X6.13Y-4.6
X6.13Y-4.9
X6.23Y-4.6
X6.23Y-4.9
X6.33Y-4.6
X6.33Y-4.9
T4
X6.28Y-4.05
X6.28Y-4.35
X6.43Y-4.05
X6.43Y-4.35
X6.53Y-4.75
X6.53Y-4.8287
X6.58Y-4.05
X6.58Y-4.35
X6.73Y-4.05
X6.73Y-4.35
X6.73Y-4.5
X6.88Y-4.05
X6.88Y-4.35
X6.93Y-4.7
X6.93Y-4.7984
X7.03Y-4.05
X7.03Y-4.35
X7.03Y-4.5
T5
X5.81Y-2.85
X5.81Y-2.95
X6.08Y-4.1531
X6.08Y-4.2516
X6.08Y-4.35
X6.31Y-2.85
X6.31Y-2.95
T6
X5.48Y-4.8
T7
X5.48Y-4.0126
T0
M30
