G04 #@! TF.FileFunction,Soldermask,Top*
%FSLAX46Y46*%
G04 Gerber Fmt 4.6, Leading zero omitted, Abs format (unit mm)*
G04 Created by KiCad (PCBNEW 4.0.7) date 04/29/18 15:13:27*
%MOMM*%
%LPD*%
G01*
G04 APERTURE LIST*
%ADD10C,0.100000*%
%ADD11R,2.300000X2.300000*%
%ADD12C,2.300000*%
%ADD13R,2.570000X2.570000*%
%ADD14C,2.900000*%
%ADD15C,2.000000*%
%ADD16O,2.000000X2.000000*%
%ADD17R,1.400000X1.400000*%
%ADD18C,1.400000*%
%ADD19R,2.200000X2.200000*%
%ADD20C,2.200000*%
%ADD21R,2.000000X2.000000*%
%ADD22C,1.924000*%
G04 APERTURE END LIST*
D10*
D11*
X65532000Y-113030000D03*
D12*
X65532000Y-110530000D03*
X65532000Y-108030000D03*
D13*
X50292000Y-124460000D03*
D14*
X50292000Y-104460000D03*
D15*
X82042000Y-113030000D03*
D16*
X82042000Y-105410000D03*
D15*
X78232000Y-113030000D03*
D16*
X78232000Y-105410000D03*
D15*
X82042000Y-116840000D03*
D16*
X89662000Y-116840000D03*
D15*
X89662000Y-105410000D03*
D16*
X89662000Y-113030000D03*
D15*
X85852000Y-113030000D03*
D16*
X85852000Y-105410000D03*
D15*
X74422000Y-113030000D03*
D16*
X74422000Y-105410000D03*
D15*
X70612000Y-105410000D03*
D16*
X70612000Y-113030000D03*
D17*
X76962000Y-119380000D03*
D18*
X76962000Y-118110000D03*
X76962000Y-116840000D03*
D19*
X71374000Y-77470000D03*
D20*
X71374000Y-74930000D03*
D21*
X87122000Y-121920000D03*
D15*
X87122000Y-124420000D03*
D21*
X76962000Y-123190000D03*
D15*
X76962000Y-125190000D03*
D22*
X64262000Y-127000000D03*
X66802000Y-127000000D03*
X69342000Y-127000000D03*
X71882000Y-127000000D03*
X71882000Y-119380000D03*
X69342000Y-119380000D03*
X66802000Y-119380000D03*
X64262000Y-119380000D03*
D19*
X58674000Y-77470000D03*
D20*
X58674000Y-74930000D03*
D19*
X117094000Y-77470000D03*
D20*
X117094000Y-74930000D03*
D22*
X122682000Y-127000000D03*
X125222000Y-127000000D03*
X127762000Y-127000000D03*
X130302000Y-127000000D03*
X130302000Y-119380000D03*
X127762000Y-119380000D03*
X125222000Y-119380000D03*
X122682000Y-119380000D03*
D21*
X135382000Y-123190000D03*
D15*
X135382000Y-125190000D03*
D21*
X145542000Y-121920000D03*
D15*
X145542000Y-124420000D03*
D19*
X129794000Y-77470000D03*
D20*
X129794000Y-74930000D03*
D17*
X135382000Y-119380000D03*
D18*
X135382000Y-118110000D03*
X135382000Y-116840000D03*
D15*
X129032000Y-105410000D03*
D16*
X129032000Y-113030000D03*
D15*
X132842000Y-113030000D03*
D16*
X132842000Y-105410000D03*
D15*
X144272000Y-113030000D03*
D16*
X144272000Y-105410000D03*
D15*
X148082000Y-105410000D03*
D16*
X148082000Y-113030000D03*
D15*
X140462000Y-116840000D03*
D16*
X148082000Y-116840000D03*
D15*
X136652000Y-113030000D03*
D16*
X136652000Y-105410000D03*
D15*
X140462000Y-113030000D03*
D16*
X140462000Y-105410000D03*
D13*
X108712000Y-124460000D03*
D14*
X108712000Y-104460000D03*
D11*
X123952000Y-113030000D03*
D12*
X123952000Y-110530000D03*
X123952000Y-108030000D03*
D19*
X175514000Y-77470000D03*
D20*
X175514000Y-74930000D03*
D22*
X181102000Y-127000000D03*
X183642000Y-127000000D03*
X186182000Y-127000000D03*
X188722000Y-127000000D03*
X188722000Y-119380000D03*
X186182000Y-119380000D03*
X183642000Y-119380000D03*
X181102000Y-119380000D03*
D21*
X193802000Y-123190000D03*
D15*
X193802000Y-125190000D03*
D21*
X203962000Y-121920000D03*
D15*
X203962000Y-124420000D03*
D19*
X188214000Y-77470000D03*
D20*
X188214000Y-74930000D03*
D17*
X193802000Y-119380000D03*
D18*
X193802000Y-118110000D03*
X193802000Y-116840000D03*
D15*
X187452000Y-105410000D03*
D16*
X187452000Y-113030000D03*
D15*
X191262000Y-113030000D03*
D16*
X191262000Y-105410000D03*
D15*
X202692000Y-113030000D03*
D16*
X202692000Y-105410000D03*
D15*
X206502000Y-105410000D03*
D16*
X206502000Y-113030000D03*
D15*
X198882000Y-116840000D03*
D16*
X206502000Y-116840000D03*
D15*
X195072000Y-113030000D03*
D16*
X195072000Y-105410000D03*
D15*
X198882000Y-113030000D03*
D16*
X198882000Y-105410000D03*
D13*
X167132000Y-124460000D03*
D14*
X167132000Y-104460000D03*
D11*
X182372000Y-113030000D03*
D12*
X182372000Y-110530000D03*
X182372000Y-108030000D03*
D19*
X58674000Y-166370000D03*
D20*
X58674000Y-163830000D03*
D22*
X64262000Y-215900000D03*
X66802000Y-215900000D03*
X69342000Y-215900000D03*
X71882000Y-215900000D03*
X71882000Y-208280000D03*
X69342000Y-208280000D03*
X66802000Y-208280000D03*
X64262000Y-208280000D03*
D21*
X76962000Y-212090000D03*
D15*
X76962000Y-214090000D03*
D21*
X87122000Y-210820000D03*
D15*
X87122000Y-213320000D03*
D19*
X71374000Y-166370000D03*
D20*
X71374000Y-163830000D03*
D17*
X76962000Y-208280000D03*
D18*
X76962000Y-207010000D03*
X76962000Y-205740000D03*
D15*
X70612000Y-194310000D03*
D16*
X70612000Y-201930000D03*
D15*
X74422000Y-201930000D03*
D16*
X74422000Y-194310000D03*
D15*
X85852000Y-201930000D03*
D16*
X85852000Y-194310000D03*
D15*
X89662000Y-194310000D03*
D16*
X89662000Y-201930000D03*
D15*
X82042000Y-205740000D03*
D16*
X89662000Y-205740000D03*
D15*
X78232000Y-201930000D03*
D16*
X78232000Y-194310000D03*
D15*
X82042000Y-201930000D03*
D16*
X82042000Y-194310000D03*
D13*
X50292000Y-213360000D03*
D14*
X50292000Y-193360000D03*
D11*
X65532000Y-201930000D03*
D12*
X65532000Y-199430000D03*
X65532000Y-196930000D03*
D19*
X117094000Y-166370000D03*
D20*
X117094000Y-163830000D03*
D22*
X122682000Y-215900000D03*
X125222000Y-215900000D03*
X127762000Y-215900000D03*
X130302000Y-215900000D03*
X130302000Y-208280000D03*
X127762000Y-208280000D03*
X125222000Y-208280000D03*
X122682000Y-208280000D03*
D21*
X135382000Y-212090000D03*
D15*
X135382000Y-214090000D03*
D21*
X145542000Y-210820000D03*
D15*
X145542000Y-213320000D03*
D19*
X129794000Y-166370000D03*
D20*
X129794000Y-163830000D03*
D17*
X135382000Y-208280000D03*
D18*
X135382000Y-207010000D03*
X135382000Y-205740000D03*
D15*
X129032000Y-194310000D03*
D16*
X129032000Y-201930000D03*
D15*
X132842000Y-201930000D03*
D16*
X132842000Y-194310000D03*
D15*
X144272000Y-201930000D03*
D16*
X144272000Y-194310000D03*
D15*
X148082000Y-194310000D03*
D16*
X148082000Y-201930000D03*
D15*
X140462000Y-205740000D03*
D16*
X148082000Y-205740000D03*
D15*
X136652000Y-201930000D03*
D16*
X136652000Y-194310000D03*
D15*
X140462000Y-201930000D03*
D16*
X140462000Y-194310000D03*
D13*
X108712000Y-213360000D03*
D14*
X108712000Y-193360000D03*
D11*
X123952000Y-201930000D03*
D12*
X123952000Y-199430000D03*
X123952000Y-196930000D03*
D19*
X175514000Y-166370000D03*
D20*
X175514000Y-163830000D03*
D22*
X181102000Y-215900000D03*
X183642000Y-215900000D03*
X186182000Y-215900000D03*
X188722000Y-215900000D03*
X188722000Y-208280000D03*
X186182000Y-208280000D03*
X183642000Y-208280000D03*
X181102000Y-208280000D03*
D21*
X193802000Y-212090000D03*
D15*
X193802000Y-214090000D03*
D21*
X203962000Y-210820000D03*
D15*
X203962000Y-213320000D03*
D19*
X188214000Y-166370000D03*
D20*
X188214000Y-163830000D03*
D17*
X193802000Y-208280000D03*
D18*
X193802000Y-207010000D03*
X193802000Y-205740000D03*
D15*
X187452000Y-194310000D03*
D16*
X187452000Y-201930000D03*
D15*
X191262000Y-201930000D03*
D16*
X191262000Y-194310000D03*
D15*
X202692000Y-201930000D03*
D16*
X202692000Y-194310000D03*
D15*
X206502000Y-194310000D03*
D16*
X206502000Y-201930000D03*
D15*
X198882000Y-205740000D03*
D16*
X206502000Y-205740000D03*
D15*
X195072000Y-201930000D03*
D16*
X195072000Y-194310000D03*
D15*
X198882000Y-201930000D03*
D16*
X198882000Y-194310000D03*
D13*
X167132000Y-213360000D03*
D14*
X167132000Y-193360000D03*
D11*
X182372000Y-201930000D03*
D12*
X182372000Y-199430000D03*
X182372000Y-196930000D03*
D19*
X58674000Y-255270000D03*
D20*
X58674000Y-252730000D03*
D22*
X64262000Y-304800000D03*
X66802000Y-304800000D03*
X69342000Y-304800000D03*
X71882000Y-304800000D03*
X71882000Y-297180000D03*
X69342000Y-297180000D03*
X66802000Y-297180000D03*
X64262000Y-297180000D03*
D21*
X76962000Y-300990000D03*
D15*
X76962000Y-302990000D03*
D21*
X87122000Y-299720000D03*
D15*
X87122000Y-302220000D03*
D19*
X71374000Y-255270000D03*
D20*
X71374000Y-252730000D03*
D17*
X76962000Y-297180000D03*
D18*
X76962000Y-295910000D03*
X76962000Y-294640000D03*
D15*
X70612000Y-283210000D03*
D16*
X70612000Y-290830000D03*
D15*
X74422000Y-290830000D03*
D16*
X74422000Y-283210000D03*
D15*
X85852000Y-290830000D03*
D16*
X85852000Y-283210000D03*
D15*
X89662000Y-283210000D03*
D16*
X89662000Y-290830000D03*
D15*
X82042000Y-294640000D03*
D16*
X89662000Y-294640000D03*
D15*
X78232000Y-290830000D03*
D16*
X78232000Y-283210000D03*
D15*
X82042000Y-290830000D03*
D16*
X82042000Y-283210000D03*
D13*
X50292000Y-302260000D03*
D14*
X50292000Y-282260000D03*
D11*
X65532000Y-290830000D03*
D12*
X65532000Y-288330000D03*
X65532000Y-285830000D03*
D19*
X117094000Y-255270000D03*
D20*
X117094000Y-252730000D03*
D22*
X122682000Y-304800000D03*
X125222000Y-304800000D03*
X127762000Y-304800000D03*
X130302000Y-304800000D03*
X130302000Y-297180000D03*
X127762000Y-297180000D03*
X125222000Y-297180000D03*
X122682000Y-297180000D03*
D21*
X135382000Y-300990000D03*
D15*
X135382000Y-302990000D03*
D21*
X145542000Y-299720000D03*
D15*
X145542000Y-302220000D03*
D19*
X129794000Y-255270000D03*
D20*
X129794000Y-252730000D03*
D17*
X135382000Y-297180000D03*
D18*
X135382000Y-295910000D03*
X135382000Y-294640000D03*
D15*
X129032000Y-283210000D03*
D16*
X129032000Y-290830000D03*
D15*
X132842000Y-290830000D03*
D16*
X132842000Y-283210000D03*
D15*
X144272000Y-290830000D03*
D16*
X144272000Y-283210000D03*
D15*
X148082000Y-283210000D03*
D16*
X148082000Y-290830000D03*
D15*
X140462000Y-294640000D03*
D16*
X148082000Y-294640000D03*
D15*
X136652000Y-290830000D03*
D16*
X136652000Y-283210000D03*
D15*
X140462000Y-290830000D03*
D16*
X140462000Y-283210000D03*
D13*
X108712000Y-302260000D03*
D14*
X108712000Y-282260000D03*
D11*
X123952000Y-290830000D03*
D12*
X123952000Y-288330000D03*
X123952000Y-285830000D03*
D19*
X175514000Y-255270000D03*
D20*
X175514000Y-252730000D03*
D22*
X181102000Y-304800000D03*
X183642000Y-304800000D03*
X186182000Y-304800000D03*
X188722000Y-304800000D03*
X188722000Y-297180000D03*
X186182000Y-297180000D03*
X183642000Y-297180000D03*
X181102000Y-297180000D03*
D21*
X193802000Y-300990000D03*
D15*
X193802000Y-302990000D03*
D21*
X203962000Y-299720000D03*
D15*
X203962000Y-302220000D03*
D19*
X188214000Y-255270000D03*
D20*
X188214000Y-252730000D03*
D17*
X193802000Y-297180000D03*
D18*
X193802000Y-295910000D03*
X193802000Y-294640000D03*
D15*
X187452000Y-283210000D03*
D16*
X187452000Y-290830000D03*
D15*
X191262000Y-290830000D03*
D16*
X191262000Y-283210000D03*
D15*
X202692000Y-290830000D03*
D16*
X202692000Y-283210000D03*
D15*
X206502000Y-283210000D03*
D16*
X206502000Y-290830000D03*
D15*
X198882000Y-294640000D03*
D16*
X206502000Y-294640000D03*
D15*
X195072000Y-290830000D03*
D16*
X195072000Y-283210000D03*
D15*
X198882000Y-290830000D03*
D16*
X198882000Y-283210000D03*
D13*
X167132000Y-302260000D03*
D14*
X167132000Y-282260000D03*
D11*
X182372000Y-290830000D03*
D12*
X182372000Y-288330000D03*
X182372000Y-285830000D03*
M02*
