M48
;DRILL file {KiCad 4.0.7} date 04/29/18 15:13:31
;FORMAT={-:-/ absolute / inch / decimal}
FMAT,2
INCH,TZ
T1C0.015
T2C0.020
T3C0.030
T4C0.031
T5C0.035
T6C0.046
T7C0.059
%
G90
G05
M72
T1
X3.155Y-4.49
X3.155Y-7.99
X3.155Y-11.49
X5.455Y-4.49
X5.455Y-7.99
X5.455Y-11.49
X7.755Y-4.49
X7.755Y-7.99
X7.755Y-11.49
T2
X3.03Y-4.6
X3.03Y-4.65
X3.03Y-4.7
X3.03Y-8.1
X3.03Y-8.15
X3.03Y-8.2
X3.03Y-11.6
X3.03Y-11.65
X3.03Y-11.7
X5.33Y-4.6
X5.33Y-4.65
X5.33Y-4.7
X5.33Y-8.1
X5.33Y-8.15
X5.33Y-8.2
X5.33Y-11.6
X5.33Y-11.65
X5.33Y-11.7
X7.63Y-4.6
X7.63Y-4.65
X7.63Y-4.7
X7.63Y-8.1
X7.63Y-8.15
X7.63Y-8.2
X7.63Y-11.6
X7.63Y-11.65
X7.63Y-11.7
T3
X2.53Y-4.7
X2.53Y-5.
X2.53Y-8.2
X2.53Y-8.5
X2.53Y-11.7
X2.53Y-12.
X2.63Y-4.7
X2.63Y-5.
X2.63Y-8.2
X2.63Y-8.5
X2.63Y-11.7
X2.63Y-12.
X2.73Y-4.7
X2.73Y-5.
X2.73Y-8.2
X2.73Y-8.5
X2.73Y-11.7
X2.73Y-12.
X2.83Y-4.7
X2.83Y-5.
X2.83Y-8.2
X2.83Y-8.5
X2.83Y-11.7
X2.83Y-12.
X4.83Y-4.7
X4.83Y-5.
X4.83Y-8.2
X4.83Y-8.5
X4.83Y-11.7
X4.83Y-12.
X4.93Y-4.7
X4.93Y-5.
X4.93Y-8.2
X4.93Y-8.5
X4.93Y-11.7
X4.93Y-12.
X5.03Y-4.7
X5.03Y-5.
X5.03Y-8.2
X5.03Y-8.5
X5.03Y-11.7
X5.03Y-12.
X5.13Y-4.7
X5.13Y-5.
X5.13Y-8.2
X5.13Y-8.5
X5.13Y-11.7
X5.13Y-12.
X7.13Y-4.7
X7.13Y-5.
X7.13Y-8.2
X7.13Y-8.5
X7.13Y-11.7
X7.13Y-12.
X7.23Y-4.7
X7.23Y-5.
X7.23Y-8.2
X7.23Y-8.5
X7.23Y-11.7
X7.23Y-12.
X7.33Y-4.7
X7.33Y-5.
X7.33Y-8.2
X7.33Y-8.5
X7.33Y-11.7
X7.33Y-12.
X7.43Y-4.7
X7.43Y-5.
X7.43Y-8.2
X7.43Y-8.5
X7.43Y-11.7
X7.43Y-12.
T4
X2.78Y-4.15
X2.78Y-4.45
X2.78Y-7.65
X2.78Y-7.95
X2.78Y-11.15
X2.78Y-11.45
X2.93Y-4.15
X2.93Y-4.45
X2.93Y-7.65
X2.93Y-7.95
X2.93Y-11.15
X2.93Y-11.45
X3.03Y-4.85
X3.03Y-4.9287
X3.03Y-8.35
X3.03Y-8.4287
X3.03Y-11.85
X3.03Y-11.9287
X3.08Y-4.15
X3.08Y-4.45
X3.08Y-7.65
X3.08Y-7.95
X3.08Y-11.15
X3.08Y-11.45
X3.23Y-4.15
X3.23Y-4.45
X3.23Y-4.6
X3.23Y-7.65
X3.23Y-7.95
X3.23Y-8.1
X3.23Y-11.15
X3.23Y-11.45
X3.23Y-11.6
X3.38Y-4.15
X3.38Y-4.45
X3.38Y-7.65
X3.38Y-7.95
X3.38Y-11.15
X3.38Y-11.45
X3.43Y-4.8
X3.43Y-4.8984
X3.43Y-8.3
X3.43Y-8.3984
X3.43Y-11.8
X3.43Y-11.8984
X3.53Y-4.15
X3.53Y-4.45
X3.53Y-4.6
X3.53Y-7.65
X3.53Y-7.95
X3.53Y-8.1
X3.53Y-11.15
X3.53Y-11.45
X3.53Y-11.6
X5.08Y-4.15
X5.08Y-4.45
X5.08Y-7.65
X5.08Y-7.95
X5.08Y-11.15
X5.08Y-11.45
X5.23Y-4.15
X5.23Y-4.45
X5.23Y-7.65
X5.23Y-7.95
X5.23Y-11.15
X5.23Y-11.45
X5.33Y-4.85
X5.33Y-4.9287
X5.33Y-8.35
X5.33Y-8.4287
X5.33Y-11.85
X5.33Y-11.9287
X5.38Y-4.15
X5.38Y-4.45
X5.38Y-7.65
X5.38Y-7.95
X5.38Y-11.15
X5.38Y-11.45
X5.53Y-4.15
X5.53Y-4.45
X5.53Y-4.6
X5.53Y-7.65
X5.53Y-7.95
X5.53Y-8.1
X5.53Y-11.15
X5.53Y-11.45
X5.53Y-11.6
X5.68Y-4.15
X5.68Y-4.45
X5.68Y-7.65
X5.68Y-7.95
X5.68Y-11.15
X5.68Y-11.45
X5.73Y-4.8
X5.73Y-4.8984
X5.73Y-8.3
X5.73Y-8.3984
X5.73Y-11.8
X5.73Y-11.8984
X5.83Y-4.15
X5.83Y-4.45
X5.83Y-4.6
X5.83Y-7.65
X5.83Y-7.95
X5.83Y-8.1
X5.83Y-11.15
X5.83Y-11.45
X5.83Y-11.6
X7.38Y-4.15
X7.38Y-4.45
X7.38Y-7.65
X7.38Y-7.95
X7.38Y-11.15
X7.38Y-11.45
X7.53Y-4.15
X7.53Y-4.45
X7.53Y-7.65
X7.53Y-7.95
X7.53Y-11.15
X7.53Y-11.45
X7.63Y-4.85
X7.63Y-4.9287
X7.63Y-8.35
X7.63Y-8.4287
X7.63Y-11.85
X7.63Y-11.9287
X7.68Y-4.15
X7.68Y-4.45
X7.68Y-7.65
X7.68Y-7.95
X7.68Y-11.15
X7.68Y-11.45
X7.83Y-4.15
X7.83Y-4.45
X7.83Y-4.6
X7.83Y-7.65
X7.83Y-7.95
X7.83Y-8.1
X7.83Y-11.15
X7.83Y-11.45
X7.83Y-11.6
X7.98Y-4.15
X7.98Y-4.45
X7.98Y-7.65
X7.98Y-7.95
X7.98Y-11.15
X7.98Y-11.45
X8.03Y-4.8
X8.03Y-4.8984
X8.03Y-8.3
X8.03Y-8.3984
X8.03Y-11.8
X8.03Y-11.8984
X8.13Y-4.15
X8.13Y-4.45
X8.13Y-4.6
X8.13Y-7.65
X8.13Y-7.95
X8.13Y-8.1
X8.13Y-11.15
X8.13Y-11.45
X8.13Y-11.6
T5
X2.31Y-2.95
X2.31Y-3.05
X2.31Y-6.45
X2.31Y-6.55
X2.31Y-9.95
X2.31Y-10.05
X2.58Y-4.2531
X2.58Y-4.3516
X2.58Y-4.45
X2.58Y-7.7531
X2.58Y-7.8516
X2.58Y-7.95
X2.58Y-11.2531
X2.58Y-11.3516
X2.58Y-11.45
X2.81Y-2.95
X2.81Y-3.05
X2.81Y-6.45
X2.81Y-6.55
X2.81Y-9.95
X2.81Y-10.05
X4.61Y-2.95
X4.61Y-3.05
X4.61Y-6.45
X4.61Y-6.55
X4.61Y-9.95
X4.61Y-10.05
X4.88Y-4.2531
X4.88Y-4.3516
X4.88Y-4.45
X4.88Y-7.7531
X4.88Y-7.8516
X4.88Y-7.95
X4.88Y-11.2531
X4.88Y-11.3516
X4.88Y-11.45
X5.11Y-2.95
X5.11Y-3.05
X5.11Y-6.45
X5.11Y-6.55
X5.11Y-9.95
X5.11Y-10.05
X6.91Y-2.95
X6.91Y-3.05
X6.91Y-6.45
X6.91Y-6.55
X6.91Y-9.95
X6.91Y-10.05
X7.18Y-4.2531
X7.18Y-4.3516
X7.18Y-4.45
X7.18Y-7.7531
X7.18Y-7.8516
X7.18Y-7.95
X7.18Y-11.2531
X7.18Y-11.3516
X7.18Y-11.45
X7.41Y-2.95
X7.41Y-3.05
X7.41Y-6.45
X7.41Y-6.55
X7.41Y-9.95
X7.41Y-10.05
T6
X1.98Y-4.9
X1.98Y-8.4
X1.98Y-11.9
X4.28Y-4.9
X4.28Y-8.4
X4.28Y-11.9
X6.58Y-4.9
X6.58Y-8.4
X6.58Y-11.9
T7
X1.98Y-4.1126
X1.98Y-7.6126
X1.98Y-11.1126
X4.28Y-4.1126
X4.28Y-7.6126
X4.28Y-11.1126
X6.58Y-4.1126
X6.58Y-7.6126
X6.58Y-11.1126
T0
M30
