G04 #@! TF.FileFunction,Legend,Top*
%FSLAX46Y46*%
G04 Gerber Fmt 4.6, Leading zero omitted, Abs format (unit mm)*
G04 Created by KiCad (PCBNEW 4.0.7) date 01/11/18 20:42:18*
%MOMM*%
%LPD*%
G01*
G04 APERTURE LIST*
%ADD10C,0.100000*%
%ADD11C,0.300000*%
%ADD12C,0.120000*%
%ADD13C,0.203200*%
%ADD14C,0.150000*%
%ADD15C,0.254000*%
G04 APERTURE END LIST*
D10*
D11*
X149947428Y-104588571D02*
X150233142Y-104588571D01*
X150376000Y-104660000D01*
X150518857Y-104802857D01*
X150590285Y-105088571D01*
X150590285Y-105588571D01*
X150518857Y-105874286D01*
X150376000Y-106017143D01*
X150233142Y-106088571D01*
X149947428Y-106088571D01*
X149804571Y-106017143D01*
X149661714Y-105874286D01*
X149590285Y-105588571D01*
X149590285Y-105088571D01*
X149661714Y-104802857D01*
X149804571Y-104660000D01*
X149947428Y-104588571D01*
X151233143Y-106088571D02*
X151233143Y-104588571D01*
X152090286Y-106088571D01*
X152090286Y-104588571D01*
X144462572Y-101961143D02*
X145605429Y-101961143D01*
X145034000Y-102532571D02*
X145034000Y-101389714D01*
D12*
X146495392Y-71987665D02*
G75*
G03X146338484Y-75220000I1078608J-1672335D01*
G01*
X148652608Y-71987665D02*
G75*
G02X148809516Y-75220000I-1078608J-1672335D01*
G01*
X146494163Y-72618870D02*
G75*
G03X146494000Y-74700961I1079837J-1041130D01*
G01*
X148653837Y-72618870D02*
G75*
G02X148654000Y-74700961I-1079837J-1041130D01*
G01*
X146338000Y-75220000D02*
X146494000Y-75220000D01*
X148654000Y-75220000D02*
X148810000Y-75220000D01*
D13*
X151892000Y-124714000D02*
G75*
G03X151892000Y-124714000I-254000J0D01*
G01*
X162052000Y-117094000D02*
X162052000Y-124206000D01*
X151892000Y-117094000D02*
X151892000Y-124206000D01*
D12*
X167041723Y-123955722D02*
G75*
G03X167042000Y-119344420I-1179723J2305722D01*
G01*
X164682277Y-123955722D02*
G75*
G02X164682000Y-119344420I1179723J2305722D01*
G01*
X164682277Y-123955722D02*
G75*
G03X167042000Y-123955580I1179723J2305722D01*
G01*
X168412000Y-121650000D02*
X163312000Y-121650000D01*
X168412000Y-121690000D02*
X166842000Y-121690000D01*
X164882000Y-121690000D02*
X163312000Y-121690000D01*
X168411000Y-121730000D02*
X166842000Y-121730000D01*
X164882000Y-121730000D02*
X163313000Y-121730000D01*
X168410000Y-121770000D02*
X166842000Y-121770000D01*
X164882000Y-121770000D02*
X163314000Y-121770000D01*
X168408000Y-121810000D02*
X166842000Y-121810000D01*
X164882000Y-121810000D02*
X163316000Y-121810000D01*
X168405000Y-121850000D02*
X166842000Y-121850000D01*
X164882000Y-121850000D02*
X163319000Y-121850000D01*
X168401000Y-121890000D02*
X166842000Y-121890000D01*
X164882000Y-121890000D02*
X163323000Y-121890000D01*
X168397000Y-121930000D02*
X166842000Y-121930000D01*
X164882000Y-121930000D02*
X163327000Y-121930000D01*
X168393000Y-121970000D02*
X166842000Y-121970000D01*
X164882000Y-121970000D02*
X163331000Y-121970000D01*
X168387000Y-122010000D02*
X166842000Y-122010000D01*
X164882000Y-122010000D02*
X163337000Y-122010000D01*
X168381000Y-122050000D02*
X166842000Y-122050000D01*
X164882000Y-122050000D02*
X163343000Y-122050000D01*
X168375000Y-122090000D02*
X166842000Y-122090000D01*
X164882000Y-122090000D02*
X163349000Y-122090000D01*
X168368000Y-122130000D02*
X166842000Y-122130000D01*
X164882000Y-122130000D02*
X163356000Y-122130000D01*
X168360000Y-122170000D02*
X166842000Y-122170000D01*
X164882000Y-122170000D02*
X163364000Y-122170000D01*
X168351000Y-122210000D02*
X166842000Y-122210000D01*
X164882000Y-122210000D02*
X163373000Y-122210000D01*
X168342000Y-122250000D02*
X166842000Y-122250000D01*
X164882000Y-122250000D02*
X163382000Y-122250000D01*
X168332000Y-122290000D02*
X166842000Y-122290000D01*
X164882000Y-122290000D02*
X163392000Y-122290000D01*
X168322000Y-122330000D02*
X166842000Y-122330000D01*
X164882000Y-122330000D02*
X163402000Y-122330000D01*
X168310000Y-122371000D02*
X166842000Y-122371000D01*
X164882000Y-122371000D02*
X163414000Y-122371000D01*
X168298000Y-122411000D02*
X166842000Y-122411000D01*
X164882000Y-122411000D02*
X163426000Y-122411000D01*
X168286000Y-122451000D02*
X166842000Y-122451000D01*
X164882000Y-122451000D02*
X163438000Y-122451000D01*
X168272000Y-122491000D02*
X166842000Y-122491000D01*
X164882000Y-122491000D02*
X163452000Y-122491000D01*
X168258000Y-122531000D02*
X166842000Y-122531000D01*
X164882000Y-122531000D02*
X163466000Y-122531000D01*
X168244000Y-122571000D02*
X166842000Y-122571000D01*
X164882000Y-122571000D02*
X163480000Y-122571000D01*
X168228000Y-122611000D02*
X166842000Y-122611000D01*
X164882000Y-122611000D02*
X163496000Y-122611000D01*
X168212000Y-122651000D02*
X166842000Y-122651000D01*
X164882000Y-122651000D02*
X163512000Y-122651000D01*
X168195000Y-122691000D02*
X166842000Y-122691000D01*
X164882000Y-122691000D02*
X163529000Y-122691000D01*
X168177000Y-122731000D02*
X166842000Y-122731000D01*
X164882000Y-122731000D02*
X163547000Y-122731000D01*
X168158000Y-122771000D02*
X166842000Y-122771000D01*
X164882000Y-122771000D02*
X163566000Y-122771000D01*
X168138000Y-122811000D02*
X166842000Y-122811000D01*
X164882000Y-122811000D02*
X163586000Y-122811000D01*
X168118000Y-122851000D02*
X166842000Y-122851000D01*
X164882000Y-122851000D02*
X163606000Y-122851000D01*
X168096000Y-122891000D02*
X166842000Y-122891000D01*
X164882000Y-122891000D02*
X163628000Y-122891000D01*
X168074000Y-122931000D02*
X166842000Y-122931000D01*
X164882000Y-122931000D02*
X163650000Y-122931000D01*
X168051000Y-122971000D02*
X166842000Y-122971000D01*
X164882000Y-122971000D02*
X163673000Y-122971000D01*
X168027000Y-123011000D02*
X166842000Y-123011000D01*
X164882000Y-123011000D02*
X163697000Y-123011000D01*
X168002000Y-123051000D02*
X166842000Y-123051000D01*
X164882000Y-123051000D02*
X163722000Y-123051000D01*
X167975000Y-123091000D02*
X166842000Y-123091000D01*
X164882000Y-123091000D02*
X163749000Y-123091000D01*
X167948000Y-123131000D02*
X166842000Y-123131000D01*
X164882000Y-123131000D02*
X163776000Y-123131000D01*
X167920000Y-123171000D02*
X166842000Y-123171000D01*
X164882000Y-123171000D02*
X163804000Y-123171000D01*
X167890000Y-123211000D02*
X166842000Y-123211000D01*
X164882000Y-123211000D02*
X163834000Y-123211000D01*
X167859000Y-123251000D02*
X166842000Y-123251000D01*
X164882000Y-123251000D02*
X163865000Y-123251000D01*
X167827000Y-123291000D02*
X166842000Y-123291000D01*
X164882000Y-123291000D02*
X163897000Y-123291000D01*
X167794000Y-123331000D02*
X166842000Y-123331000D01*
X164882000Y-123331000D02*
X163930000Y-123331000D01*
X167759000Y-123371000D02*
X166842000Y-123371000D01*
X164882000Y-123371000D02*
X163965000Y-123371000D01*
X167723000Y-123411000D02*
X166842000Y-123411000D01*
X164882000Y-123411000D02*
X164001000Y-123411000D01*
X167685000Y-123451000D02*
X166842000Y-123451000D01*
X164882000Y-123451000D02*
X164039000Y-123451000D01*
X167645000Y-123491000D02*
X166842000Y-123491000D01*
X164882000Y-123491000D02*
X164079000Y-123491000D01*
X167604000Y-123531000D02*
X166842000Y-123531000D01*
X164882000Y-123531000D02*
X164120000Y-123531000D01*
X167561000Y-123571000D02*
X166842000Y-123571000D01*
X164882000Y-123571000D02*
X164163000Y-123571000D01*
X167516000Y-123611000D02*
X166842000Y-123611000D01*
X164882000Y-123611000D02*
X164208000Y-123611000D01*
X167468000Y-123651000D02*
X164256000Y-123651000D01*
X167418000Y-123691000D02*
X164306000Y-123691000D01*
X167366000Y-123731000D02*
X164358000Y-123731000D01*
X167310000Y-123771000D02*
X164414000Y-123771000D01*
X167252000Y-123811000D02*
X164472000Y-123811000D01*
X167189000Y-123851000D02*
X164535000Y-123851000D01*
X167123000Y-123891000D02*
X164601000Y-123891000D01*
X167051000Y-123931000D02*
X164673000Y-123931000D01*
X166974000Y-123971000D02*
X164750000Y-123971000D01*
X166890000Y-124011000D02*
X164834000Y-124011000D01*
X166796000Y-124051000D02*
X164928000Y-124051000D01*
X166691000Y-124091000D02*
X165033000Y-124091000D01*
X166569000Y-124131000D02*
X165155000Y-124131000D01*
X166421000Y-124171000D02*
X165303000Y-124171000D01*
X166216000Y-124211000D02*
X165508000Y-124211000D01*
X165862000Y-118450000D02*
X165862000Y-119650000D01*
X166512000Y-119050000D02*
X165212000Y-119050000D01*
X177201136Y-123647820D02*
G75*
G03X177202000Y-117612518I-1179136J3017820D01*
G01*
X174842864Y-123647820D02*
G75*
G02X174842000Y-117612518I1179136J3017820D01*
G01*
X174842864Y-123647820D02*
G75*
G03X177202000Y-123647482I1179136J3017820D01*
G01*
X179222000Y-120630000D02*
X172822000Y-120630000D01*
X179222000Y-120670000D02*
X172822000Y-120670000D01*
X179222000Y-120710000D02*
X172822000Y-120710000D01*
X179220000Y-120750000D02*
X172824000Y-120750000D01*
X179219000Y-120790000D02*
X172825000Y-120790000D01*
X179216000Y-120830000D02*
X172828000Y-120830000D01*
X179214000Y-120870000D02*
X172830000Y-120870000D01*
X179210000Y-120910000D02*
X177002000Y-120910000D01*
X175042000Y-120910000D02*
X172834000Y-120910000D01*
X179207000Y-120950000D02*
X177002000Y-120950000D01*
X175042000Y-120950000D02*
X172837000Y-120950000D01*
X179202000Y-120990000D02*
X177002000Y-120990000D01*
X175042000Y-120990000D02*
X172842000Y-120990000D01*
X179198000Y-121030000D02*
X177002000Y-121030000D01*
X175042000Y-121030000D02*
X172846000Y-121030000D01*
X179192000Y-121070000D02*
X177002000Y-121070000D01*
X175042000Y-121070000D02*
X172852000Y-121070000D01*
X179187000Y-121110000D02*
X177002000Y-121110000D01*
X175042000Y-121110000D02*
X172857000Y-121110000D01*
X179180000Y-121150000D02*
X177002000Y-121150000D01*
X175042000Y-121150000D02*
X172864000Y-121150000D01*
X179174000Y-121190000D02*
X177002000Y-121190000D01*
X175042000Y-121190000D02*
X172870000Y-121190000D01*
X179166000Y-121230000D02*
X177002000Y-121230000D01*
X175042000Y-121230000D02*
X172878000Y-121230000D01*
X179159000Y-121270000D02*
X177002000Y-121270000D01*
X175042000Y-121270000D02*
X172885000Y-121270000D01*
X179150000Y-121310000D02*
X177002000Y-121310000D01*
X175042000Y-121310000D02*
X172894000Y-121310000D01*
X179141000Y-121351000D02*
X177002000Y-121351000D01*
X175042000Y-121351000D02*
X172903000Y-121351000D01*
X179132000Y-121391000D02*
X177002000Y-121391000D01*
X175042000Y-121391000D02*
X172912000Y-121391000D01*
X179122000Y-121431000D02*
X177002000Y-121431000D01*
X175042000Y-121431000D02*
X172922000Y-121431000D01*
X179112000Y-121471000D02*
X177002000Y-121471000D01*
X175042000Y-121471000D02*
X172932000Y-121471000D01*
X179101000Y-121511000D02*
X177002000Y-121511000D01*
X175042000Y-121511000D02*
X172943000Y-121511000D01*
X179089000Y-121551000D02*
X177002000Y-121551000D01*
X175042000Y-121551000D02*
X172955000Y-121551000D01*
X179077000Y-121591000D02*
X177002000Y-121591000D01*
X175042000Y-121591000D02*
X172967000Y-121591000D01*
X179064000Y-121631000D02*
X177002000Y-121631000D01*
X175042000Y-121631000D02*
X172980000Y-121631000D01*
X179051000Y-121671000D02*
X177002000Y-121671000D01*
X175042000Y-121671000D02*
X172993000Y-121671000D01*
X179037000Y-121711000D02*
X177002000Y-121711000D01*
X175042000Y-121711000D02*
X173007000Y-121711000D01*
X179023000Y-121751000D02*
X177002000Y-121751000D01*
X175042000Y-121751000D02*
X173021000Y-121751000D01*
X179008000Y-121791000D02*
X177002000Y-121791000D01*
X175042000Y-121791000D02*
X173036000Y-121791000D01*
X178992000Y-121831000D02*
X177002000Y-121831000D01*
X175042000Y-121831000D02*
X173052000Y-121831000D01*
X178976000Y-121871000D02*
X177002000Y-121871000D01*
X175042000Y-121871000D02*
X173068000Y-121871000D01*
X178959000Y-121911000D02*
X177002000Y-121911000D01*
X175042000Y-121911000D02*
X173085000Y-121911000D01*
X178941000Y-121951000D02*
X177002000Y-121951000D01*
X175042000Y-121951000D02*
X173103000Y-121951000D01*
X178923000Y-121991000D02*
X177002000Y-121991000D01*
X175042000Y-121991000D02*
X173121000Y-121991000D01*
X178904000Y-122031000D02*
X177002000Y-122031000D01*
X175042000Y-122031000D02*
X173140000Y-122031000D01*
X178885000Y-122071000D02*
X177002000Y-122071000D01*
X175042000Y-122071000D02*
X173159000Y-122071000D01*
X178865000Y-122111000D02*
X177002000Y-122111000D01*
X175042000Y-122111000D02*
X173179000Y-122111000D01*
X178844000Y-122151000D02*
X177002000Y-122151000D01*
X175042000Y-122151000D02*
X173200000Y-122151000D01*
X178822000Y-122191000D02*
X177002000Y-122191000D01*
X175042000Y-122191000D02*
X173222000Y-122191000D01*
X178800000Y-122231000D02*
X177002000Y-122231000D01*
X175042000Y-122231000D02*
X173244000Y-122231000D01*
X178777000Y-122271000D02*
X177002000Y-122271000D01*
X175042000Y-122271000D02*
X173267000Y-122271000D01*
X178753000Y-122311000D02*
X177002000Y-122311000D01*
X175042000Y-122311000D02*
X173291000Y-122311000D01*
X178728000Y-122351000D02*
X177002000Y-122351000D01*
X175042000Y-122351000D02*
X173316000Y-122351000D01*
X178703000Y-122391000D02*
X177002000Y-122391000D01*
X175042000Y-122391000D02*
X173341000Y-122391000D01*
X178676000Y-122431000D02*
X177002000Y-122431000D01*
X175042000Y-122431000D02*
X173368000Y-122431000D01*
X178649000Y-122471000D02*
X177002000Y-122471000D01*
X175042000Y-122471000D02*
X173395000Y-122471000D01*
X178621000Y-122511000D02*
X177002000Y-122511000D01*
X175042000Y-122511000D02*
X173423000Y-122511000D01*
X178592000Y-122551000D02*
X177002000Y-122551000D01*
X175042000Y-122551000D02*
X173452000Y-122551000D01*
X178562000Y-122591000D02*
X177002000Y-122591000D01*
X175042000Y-122591000D02*
X173482000Y-122591000D01*
X178532000Y-122631000D02*
X177002000Y-122631000D01*
X175042000Y-122631000D02*
X173512000Y-122631000D01*
X178500000Y-122671000D02*
X177002000Y-122671000D01*
X175042000Y-122671000D02*
X173544000Y-122671000D01*
X178467000Y-122711000D02*
X177002000Y-122711000D01*
X175042000Y-122711000D02*
X173577000Y-122711000D01*
X178433000Y-122751000D02*
X177002000Y-122751000D01*
X175042000Y-122751000D02*
X173611000Y-122751000D01*
X178397000Y-122791000D02*
X177002000Y-122791000D01*
X175042000Y-122791000D02*
X173647000Y-122791000D01*
X178361000Y-122831000D02*
X177002000Y-122831000D01*
X175042000Y-122831000D02*
X173683000Y-122831000D01*
X178323000Y-122871000D02*
X173721000Y-122871000D01*
X178284000Y-122911000D02*
X173760000Y-122911000D01*
X178244000Y-122951000D02*
X173800000Y-122951000D01*
X178202000Y-122991000D02*
X173842000Y-122991000D01*
X178159000Y-123031000D02*
X173885000Y-123031000D01*
X178114000Y-123071000D02*
X173930000Y-123071000D01*
X178067000Y-123111000D02*
X173977000Y-123111000D01*
X178019000Y-123151000D02*
X174025000Y-123151000D01*
X177968000Y-123191000D02*
X174076000Y-123191000D01*
X177916000Y-123231000D02*
X174128000Y-123231000D01*
X177861000Y-123271000D02*
X174183000Y-123271000D01*
X177803000Y-123311000D02*
X174241000Y-123311000D01*
X177743000Y-123351000D02*
X174301000Y-123351000D01*
X177680000Y-123391000D02*
X174364000Y-123391000D01*
X177613000Y-123431000D02*
X174431000Y-123431000D01*
X177542000Y-123471000D02*
X174502000Y-123471000D01*
X177467000Y-123511000D02*
X174577000Y-123511000D01*
X177386000Y-123551000D02*
X174658000Y-123551000D01*
X177300000Y-123591000D02*
X174744000Y-123591000D01*
X177206000Y-123631000D02*
X174838000Y-123631000D01*
X177103000Y-123671000D02*
X174941000Y-123671000D01*
X176988000Y-123711000D02*
X175056000Y-123711000D01*
X176856000Y-123751000D02*
X175188000Y-123751000D01*
X176698000Y-123791000D02*
X175346000Y-123791000D01*
X176490000Y-123831000D02*
X175554000Y-123831000D01*
X176022000Y-117180000D02*
X176022000Y-118380000D01*
X176672000Y-117780000D02*
X175372000Y-117780000D01*
X159195392Y-71987665D02*
G75*
G03X159038484Y-75220000I1078608J-1672335D01*
G01*
X161352608Y-71987665D02*
G75*
G02X161509516Y-75220000I-1078608J-1672335D01*
G01*
X159194163Y-72618870D02*
G75*
G03X159194000Y-74700961I1079837J-1041130D01*
G01*
X161353837Y-72618870D02*
G75*
G02X161354000Y-74700961I-1079837J-1041130D01*
G01*
X159038000Y-75220000D02*
X159194000Y-75220000D01*
X161354000Y-75220000D02*
X161510000Y-75220000D01*
D10*
X166762000Y-118070000D02*
X166962000Y-117870000D01*
X166462000Y-118070000D02*
X166762000Y-118070000D01*
X166462000Y-113070000D02*
X166762000Y-113070000D01*
X166762000Y-113070000D02*
X166962000Y-113270000D01*
X163962000Y-113070000D02*
X164262000Y-113070000D01*
X163962000Y-113070000D02*
X163962000Y-113370000D01*
X163962000Y-117770000D02*
X163962000Y-118070000D01*
X163962000Y-118070000D02*
X164262000Y-118070000D01*
D12*
X160492000Y-103470000D02*
X160822000Y-103470000D01*
X160822000Y-103470000D02*
X160822000Y-109890000D01*
X160822000Y-109890000D02*
X160492000Y-109890000D01*
X158532000Y-103470000D02*
X158202000Y-103470000D01*
X158202000Y-103470000D02*
X158202000Y-109890000D01*
X158202000Y-109890000D02*
X158532000Y-109890000D01*
X162342000Y-109890000D02*
X162012000Y-109890000D01*
X162012000Y-109890000D02*
X162012000Y-103470000D01*
X162012000Y-103470000D02*
X162342000Y-103470000D01*
X164302000Y-109890000D02*
X164632000Y-109890000D01*
X164632000Y-109890000D02*
X164632000Y-103470000D01*
X164632000Y-103470000D02*
X164302000Y-103470000D01*
X173772000Y-109890000D02*
X173442000Y-109890000D01*
X173442000Y-109890000D02*
X173442000Y-103470000D01*
X173442000Y-103470000D02*
X173772000Y-103470000D01*
X175732000Y-109890000D02*
X176062000Y-109890000D01*
X176062000Y-109890000D02*
X176062000Y-103470000D01*
X176062000Y-103470000D02*
X175732000Y-103470000D01*
X179542000Y-103470000D02*
X179872000Y-103470000D01*
X179872000Y-103470000D02*
X179872000Y-109890000D01*
X179872000Y-109890000D02*
X179542000Y-109890000D01*
X177582000Y-103470000D02*
X177252000Y-103470000D01*
X177252000Y-103470000D02*
X177252000Y-109890000D01*
X177252000Y-109890000D02*
X177582000Y-109890000D01*
X171542000Y-113320000D02*
X171542000Y-112990000D01*
X171542000Y-112990000D02*
X177962000Y-112990000D01*
X177962000Y-112990000D02*
X177962000Y-113320000D01*
X171542000Y-115280000D02*
X171542000Y-115610000D01*
X171542000Y-115610000D02*
X177962000Y-115610000D01*
X177962000Y-115610000D02*
X177962000Y-115280000D01*
X166152000Y-109890000D02*
X165822000Y-109890000D01*
X165822000Y-109890000D02*
X165822000Y-103470000D01*
X165822000Y-103470000D02*
X166152000Y-103470000D01*
X168112000Y-109890000D02*
X168442000Y-109890000D01*
X168442000Y-109890000D02*
X168442000Y-103470000D01*
X168442000Y-103470000D02*
X168112000Y-103470000D01*
X169962000Y-109890000D02*
X169632000Y-109890000D01*
X169632000Y-109890000D02*
X169632000Y-103470000D01*
X169632000Y-103470000D02*
X169962000Y-103470000D01*
X171922000Y-109890000D02*
X172252000Y-109890000D01*
X172252000Y-109890000D02*
X172252000Y-103470000D01*
X172252000Y-103470000D02*
X171922000Y-103470000D01*
D10*
X143103600Y-101142800D02*
X140258800Y-101142800D01*
X135280400Y-101142800D02*
X138125200Y-101142800D01*
X143103600Y-103886000D02*
X143103600Y-101142800D01*
X135280400Y-103886000D02*
X135280400Y-101142800D01*
X150418800Y-114452400D02*
G75*
G03X150418800Y-114452400I-11226800J0D01*
G01*
X156532000Y-102190000D02*
X156532000Y-102690000D01*
X156532000Y-102190000D02*
X156032000Y-102190000D01*
X156532000Y-114090000D02*
X156532000Y-113590000D01*
X156532000Y-114090000D02*
X156032000Y-114090000D01*
X152332000Y-114090000D02*
X152332000Y-113590000D01*
X152332000Y-114090000D02*
X152832000Y-114090000D01*
X152332000Y-102190000D02*
X152832000Y-102190000D01*
X152332000Y-102190000D02*
X152332000Y-102690000D01*
D14*
X145066381Y-74398095D02*
X144066381Y-74398095D01*
X144066381Y-74160000D01*
X144114000Y-74017142D01*
X144209238Y-73921904D01*
X144304476Y-73874285D01*
X144494952Y-73826666D01*
X144637810Y-73826666D01*
X144828286Y-73874285D01*
X144923524Y-73921904D01*
X145018762Y-74017142D01*
X145066381Y-74160000D01*
X145066381Y-74398095D01*
X145066381Y-72874285D02*
X145066381Y-73445714D01*
X145066381Y-73160000D02*
X144066381Y-73160000D01*
X144209238Y-73255238D01*
X144304476Y-73350476D01*
X144352095Y-73445714D01*
X156210095Y-114768381D02*
X156210095Y-115577905D01*
X156257714Y-115673143D01*
X156305333Y-115720762D01*
X156400571Y-115768381D01*
X156591048Y-115768381D01*
X156686286Y-115720762D01*
X156733905Y-115673143D01*
X156781524Y-115577905D01*
X156781524Y-114768381D01*
X157781524Y-115768381D02*
X157210095Y-115768381D01*
X157495809Y-115768381D02*
X157495809Y-114768381D01*
X157400571Y-114911238D01*
X157305333Y-115006476D01*
X157210095Y-115054095D01*
X165695334Y-125579143D02*
X165647715Y-125626762D01*
X165504858Y-125674381D01*
X165409620Y-125674381D01*
X165266762Y-125626762D01*
X165171524Y-125531524D01*
X165123905Y-125436286D01*
X165076286Y-125245810D01*
X165076286Y-125102952D01*
X165123905Y-124912476D01*
X165171524Y-124817238D01*
X165266762Y-124722000D01*
X165409620Y-124674381D01*
X165504858Y-124674381D01*
X165647715Y-124722000D01*
X165695334Y-124769619D01*
X166647715Y-125674381D02*
X166076286Y-125674381D01*
X166362000Y-125674381D02*
X166362000Y-124674381D01*
X166266762Y-124817238D01*
X166171524Y-124912476D01*
X166076286Y-124960095D01*
X175855334Y-125579143D02*
X175807715Y-125626762D01*
X175664858Y-125674381D01*
X175569620Y-125674381D01*
X175426762Y-125626762D01*
X175331524Y-125531524D01*
X175283905Y-125436286D01*
X175236286Y-125245810D01*
X175236286Y-125102952D01*
X175283905Y-124912476D01*
X175331524Y-124817238D01*
X175426762Y-124722000D01*
X175569620Y-124674381D01*
X175664858Y-124674381D01*
X175807715Y-124722000D01*
X175855334Y-124769619D01*
X176236286Y-124769619D02*
X176283905Y-124722000D01*
X176379143Y-124674381D01*
X176617239Y-124674381D01*
X176712477Y-124722000D01*
X176760096Y-124769619D01*
X176807715Y-124864857D01*
X176807715Y-124960095D01*
X176760096Y-125102952D01*
X176188667Y-125674381D01*
X176807715Y-125674381D01*
X157766381Y-74398095D02*
X156766381Y-74398095D01*
X156766381Y-74160000D01*
X156814000Y-74017142D01*
X156909238Y-73921904D01*
X157004476Y-73874285D01*
X157194952Y-73826666D01*
X157337810Y-73826666D01*
X157528286Y-73874285D01*
X157623524Y-73921904D01*
X157718762Y-74017142D01*
X157766381Y-74160000D01*
X157766381Y-74398095D01*
X156861619Y-73445714D02*
X156814000Y-73398095D01*
X156766381Y-73302857D01*
X156766381Y-73064761D01*
X156814000Y-72969523D01*
X156861619Y-72921904D01*
X156956857Y-72874285D01*
X157052095Y-72874285D01*
X157194952Y-72921904D01*
X157766381Y-73493333D01*
X157766381Y-72874285D01*
X166274762Y-112815619D02*
X166179524Y-112768000D01*
X166084286Y-112672762D01*
X165941429Y-112529905D01*
X165846190Y-112482286D01*
X165750952Y-112482286D01*
X165798571Y-112720381D02*
X165703333Y-112672762D01*
X165608095Y-112577524D01*
X165560476Y-112387048D01*
X165560476Y-112053714D01*
X165608095Y-111863238D01*
X165703333Y-111768000D01*
X165798571Y-111720381D01*
X165989048Y-111720381D01*
X166084286Y-111768000D01*
X166179524Y-111863238D01*
X166227143Y-112053714D01*
X166227143Y-112387048D01*
X166179524Y-112577524D01*
X166084286Y-112672762D01*
X165989048Y-112720381D01*
X165798571Y-112720381D01*
X167179524Y-112720381D02*
X166608095Y-112720381D01*
X166893809Y-112720381D02*
X166893809Y-111720381D01*
X166798571Y-111863238D01*
X166703333Y-111958476D01*
X166608095Y-112006095D01*
X159345334Y-101544381D02*
X159012000Y-101068190D01*
X158773905Y-101544381D02*
X158773905Y-100544381D01*
X159154858Y-100544381D01*
X159250096Y-100592000D01*
X159297715Y-100639619D01*
X159345334Y-100734857D01*
X159345334Y-100877714D01*
X159297715Y-100972952D01*
X159250096Y-101020571D01*
X159154858Y-101068190D01*
X158773905Y-101068190D01*
X160297715Y-101544381D02*
X159726286Y-101544381D01*
X160012000Y-101544381D02*
X160012000Y-100544381D01*
X159916762Y-100687238D01*
X159821524Y-100782476D01*
X159726286Y-100830095D01*
X163155334Y-101544381D02*
X162822000Y-101068190D01*
X162583905Y-101544381D02*
X162583905Y-100544381D01*
X162964858Y-100544381D01*
X163060096Y-100592000D01*
X163107715Y-100639619D01*
X163155334Y-100734857D01*
X163155334Y-100877714D01*
X163107715Y-100972952D01*
X163060096Y-101020571D01*
X162964858Y-101068190D01*
X162583905Y-101068190D01*
X163536286Y-100639619D02*
X163583905Y-100592000D01*
X163679143Y-100544381D01*
X163917239Y-100544381D01*
X164012477Y-100592000D01*
X164060096Y-100639619D01*
X164107715Y-100734857D01*
X164107715Y-100830095D01*
X164060096Y-100972952D01*
X163488667Y-101544381D01*
X164107715Y-101544381D01*
X174585334Y-101544381D02*
X174252000Y-101068190D01*
X174013905Y-101544381D02*
X174013905Y-100544381D01*
X174394858Y-100544381D01*
X174490096Y-100592000D01*
X174537715Y-100639619D01*
X174585334Y-100734857D01*
X174585334Y-100877714D01*
X174537715Y-100972952D01*
X174490096Y-101020571D01*
X174394858Y-101068190D01*
X174013905Y-101068190D01*
X174918667Y-100544381D02*
X175537715Y-100544381D01*
X175204381Y-100925333D01*
X175347239Y-100925333D01*
X175442477Y-100972952D01*
X175490096Y-101020571D01*
X175537715Y-101115810D01*
X175537715Y-101353905D01*
X175490096Y-101449143D01*
X175442477Y-101496762D01*
X175347239Y-101544381D01*
X175061524Y-101544381D01*
X174966286Y-101496762D01*
X174918667Y-101449143D01*
X178395334Y-101544381D02*
X178062000Y-101068190D01*
X177823905Y-101544381D02*
X177823905Y-100544381D01*
X178204858Y-100544381D01*
X178300096Y-100592000D01*
X178347715Y-100639619D01*
X178395334Y-100734857D01*
X178395334Y-100877714D01*
X178347715Y-100972952D01*
X178300096Y-101020571D01*
X178204858Y-101068190D01*
X177823905Y-101068190D01*
X179252477Y-100877714D02*
X179252477Y-101544381D01*
X179014381Y-100496762D02*
X178776286Y-101211048D01*
X179395334Y-101211048D01*
X174585334Y-112720381D02*
X174252000Y-112244190D01*
X174013905Y-112720381D02*
X174013905Y-111720381D01*
X174394858Y-111720381D01*
X174490096Y-111768000D01*
X174537715Y-111815619D01*
X174585334Y-111910857D01*
X174585334Y-112053714D01*
X174537715Y-112148952D01*
X174490096Y-112196571D01*
X174394858Y-112244190D01*
X174013905Y-112244190D01*
X175490096Y-111720381D02*
X175013905Y-111720381D01*
X174966286Y-112196571D01*
X175013905Y-112148952D01*
X175109143Y-112101333D01*
X175347239Y-112101333D01*
X175442477Y-112148952D01*
X175490096Y-112196571D01*
X175537715Y-112291810D01*
X175537715Y-112529905D01*
X175490096Y-112625143D01*
X175442477Y-112672762D01*
X175347239Y-112720381D01*
X175109143Y-112720381D01*
X175013905Y-112672762D01*
X174966286Y-112625143D01*
X166965334Y-101544381D02*
X166632000Y-101068190D01*
X166393905Y-101544381D02*
X166393905Y-100544381D01*
X166774858Y-100544381D01*
X166870096Y-100592000D01*
X166917715Y-100639619D01*
X166965334Y-100734857D01*
X166965334Y-100877714D01*
X166917715Y-100972952D01*
X166870096Y-101020571D01*
X166774858Y-101068190D01*
X166393905Y-101068190D01*
X167822477Y-100544381D02*
X167632000Y-100544381D01*
X167536762Y-100592000D01*
X167489143Y-100639619D01*
X167393905Y-100782476D01*
X167346286Y-100972952D01*
X167346286Y-101353905D01*
X167393905Y-101449143D01*
X167441524Y-101496762D01*
X167536762Y-101544381D01*
X167727239Y-101544381D01*
X167822477Y-101496762D01*
X167870096Y-101449143D01*
X167917715Y-101353905D01*
X167917715Y-101115810D01*
X167870096Y-101020571D01*
X167822477Y-100972952D01*
X167727239Y-100925333D01*
X167536762Y-100925333D01*
X167441524Y-100972952D01*
X167393905Y-101020571D01*
X167346286Y-101115810D01*
X170775334Y-101544381D02*
X170442000Y-101068190D01*
X170203905Y-101544381D02*
X170203905Y-100544381D01*
X170584858Y-100544381D01*
X170680096Y-100592000D01*
X170727715Y-100639619D01*
X170775334Y-100734857D01*
X170775334Y-100877714D01*
X170727715Y-100972952D01*
X170680096Y-101020571D01*
X170584858Y-101068190D01*
X170203905Y-101068190D01*
X171108667Y-100544381D02*
X171775334Y-100544381D01*
X171346762Y-101544381D01*
X131627715Y-102036571D02*
X131770572Y-102084190D01*
X131818191Y-102131810D01*
X131865810Y-102227048D01*
X131865810Y-102369905D01*
X131818191Y-102465143D01*
X131770572Y-102512762D01*
X131675334Y-102560381D01*
X131294381Y-102560381D01*
X131294381Y-101560381D01*
X131627715Y-101560381D01*
X131722953Y-101608000D01*
X131770572Y-101655619D01*
X131818191Y-101750857D01*
X131818191Y-101846095D01*
X131770572Y-101941333D01*
X131722953Y-101988952D01*
X131627715Y-102036571D01*
X131294381Y-102036571D01*
X132246762Y-102274667D02*
X132722953Y-102274667D01*
X132151524Y-102560381D02*
X132484857Y-101560381D01*
X132818191Y-102560381D01*
X133008667Y-101560381D02*
X133580096Y-101560381D01*
X133294381Y-102560381D02*
X133294381Y-101560381D01*
X134437239Y-102560381D02*
X133865810Y-102560381D01*
X134151524Y-102560381D02*
X134151524Y-101560381D01*
X134056286Y-101703238D01*
X133961048Y-101798476D01*
X133865810Y-101846095D01*
X153670095Y-101496762D02*
X153812952Y-101544381D01*
X154051048Y-101544381D01*
X154146286Y-101496762D01*
X154193905Y-101449143D01*
X154241524Y-101353905D01*
X154241524Y-101258667D01*
X154193905Y-101163429D01*
X154146286Y-101115810D01*
X154051048Y-101068190D01*
X153860571Y-101020571D01*
X153765333Y-100972952D01*
X153717714Y-100925333D01*
X153670095Y-100830095D01*
X153670095Y-100734857D01*
X153717714Y-100639619D01*
X153765333Y-100592000D01*
X153860571Y-100544381D01*
X154098667Y-100544381D01*
X154241524Y-100592000D01*
X155193905Y-101544381D02*
X154622476Y-101544381D01*
X154908190Y-101544381D02*
X154908190Y-100544381D01*
X154812952Y-100687238D01*
X154717714Y-100782476D01*
X154622476Y-100830095D01*
D15*
G36*
X179197000Y-98933000D02*
X128651000Y-98933000D01*
X128651000Y-48387000D01*
X179197000Y-48387000D01*
X179197000Y-98933000D01*
X179197000Y-98933000D01*
G37*
X179197000Y-98933000D02*
X128651000Y-98933000D01*
X128651000Y-48387000D01*
X179197000Y-48387000D01*
X179197000Y-98933000D01*
M02*
